#!OML:ASF F:\VICON\USERDATA\INSTALL\rory3\rory3.ASF
:FULLY-SPECIFIED
:DEGREES
1
root 4.57898 17.3021 -5.51109 8.38873 -11.7521 3.13413
lowerback 6.4208 -2.12135 -8.48399
upperback 1.36766 -3.36357 1.04244
thorax -1.62304 -1.65492 6.1002
lowerneck -18.6066 -7.042 -12.5141
upperneck 21.1797 -7.696 6.25359
head 10.6357 -3.83058 3.14261
rclavicle -2.14936e-015 1.84124e-014
rhumerus 11.644 -2.92959 -77.2053
rradius 122.532
rwrist 2.72268
rhand -21.5409 24.8881
rfingers 7.12502
rthumb 4.85207 -5.03639
lclavicle -2.14936e-015 1.84124e-014
lhumerus 14.3405 -7.53787 85.3751
lradius 113.567
lwrist -1.93218
lhand -13.1066 10.0617
lfingers 7.12502
lthumb 12.9904 39.6372
rfemur -31.6696 1.30711 5.97838
rtibia 44.6584
rfoot -16.4611 -0.0516918
rtoes 2.60957
lfemur -16.479 0.428697 -20.8613
ltibia 35.5379
lfoot -22.7974 3.74496
ltoes -12.2371
2
root 4.57739 17.303 -5.51036 8.3907 -11.7758 3.16871
lowerback 6.43804 -2.09612 -8.47709
upperback 1.35073 -3.33267 1.00383
thorax -1.65835 -1.63716 6.05537
lowerneck -18.482 -7.00686 -12.4047
upperneck 21.1145 -7.68926 6.23693
head 10.5818 -3.82254 3.12248
rclavicle -3.88686e-014 -1.50082e-014
rhumerus 11.6087 -2.93441 -77.2453
rradius 122.526
rwrist 2.80159
rhand -21.5988 24.8604
rfingers 7.12502
rthumb 4.79613 -5.06529
lclavicle -3.88686e-014 -1.50082e-014
lhumerus 14.2695 -7.63918 85.3726
lradius 113.535
lwrist -1.9579
lhand -13.1789 9.74686
lfingers 7.12502
lthumb 12.9208 39.3268
rfemur -31.7024 1.16444 5.99777
rtibia 44.7102
rfoot -16.3738 -0.0778911
rtoes 1.2115
lfemur -16.4043 0.4538 -20.9168
ltibia 35.5844
lfoot -22.684 3.86692
ltoes -13.2318
3
root 4.57588 17.3027 -5.50604 8.39633 -11.7694 3.22142
lowerback 6.40623 -2.08092 -8.45035
upperback 1.35226 -3.30829 0.976915
thorax -1.64626 -1.62564 6.00878
lowerneck -18.4057 -7.02945 -12.5081
upperneck 21.0698 -7.73126 6.36473
head 10.5659 -3.83631 3.1801
rclavicle -7.25378e-014 -6.4605e-016
rhumerus 11.5934 -2.94726 -77.2494
rradius 122.457
rwrist 2.94222
rhand -21.7698 25.0179
rfingers 7.12502
rthumb 4.63108 -4.91147
lclavicle -7.25378e-014 -6.4605e-016
lhumerus 14.2195 -7.72899 85.44
lradius 113.47
lwrist -2.05181
lhand -13.2534 9.44462
lfingers 7.12502
lthumb 12.849 39.0291
rfemur -31.742 0.962453 5.97656
rtibia 44.7992
rfoot -16.2526 0.00399239
rtoes 0.301982
lfemur -16.3309 0.391319 -20.9733
ltibia 35.4539
lfoot -22.6238 3.90816
ltoes -13.636
4
root 4.57475 17.3004 -5.50075 8.45063 -11.7743 3.26527
lowerback 6.30844 -2.05891 -8.41979
upperback 1.35946 -3.26808 0.963242
thorax -1.59335 -1.60838 5.96944
lowerneck -18.3974 -7.07677 -12.6061
upperneck 21.0445 -7.79188 6.45683
head 10.5702 -3.86097 3.21942
rclavicle -2.18663e-014 -2.13321e-014
rhumerus 11.5849 -3.03564 -77.2275
rradius 122.409
rwrist 3.04781
rhand -21.7592 25.1837
rfingers 7.12502
rthumb 4.64129 -4.74545
lclavicle -2.18663e-014 -2.13321e-014
lhumerus 14.1996 -7.85159 85.5027
lradius 113.463
lwrist -2.08822
lhand -13.324 9.46075
lfingers 7.12502
lthumb 12.7809 39.0495
rfemur -31.8438 0.780041 5.93141
rtibia 44.8975
rfoot -16.1387 0.200543
rtoes 0.47305
lfemur -16.3975 0.240369 -21.0024
ltibia 35.3463
lfoot -22.7749 3.95414
ltoes -13.2583
5
root 4.57378 17.2991 -5.49719 8.47905 -11.7682 3.28511
lowerback 6.30045 -2.0452 -8.38136
upperback 1.3475 -3.24755 0.941765
thorax -1.60828 -1.59709 5.92397
lowerneck -18.375 -7.08677 -12.5891
upperneck 21.0448 -7.81383 6.45576
head 10.5676 -3.87022 3.21321
rclavicle 9.07576e-015 6.07536e-015
rhumerus 11.5378 -3.06064 -77.2733
rradius 122.413
rwrist 3.12512
rhand -21.6856 25.1531
rfingers 7.12502
rthumb 4.71236 -4.77449
lclavicle 9.07576e-015 6.07536e-015
lhumerus 14.14 -7.93765 85.5351
lradius 113.484
lwrist -2.12849
lhand -13.2247 9.38698
lfingers 7.12502
lthumb 12.8766 38.9698
rfemur -31.9324 0.563737 5.9194
rtibia 45.0194
rfoot -15.9316 0.441119
rtoes 0.473362
lfemur -16.3839 0.0790048 -21.0018
ltibia 35.2121
lfoot -22.888 3.96744
ltoes -12.7222
6
root 4.57163 17.3002 -5.49597 8.48219 -11.7592 3.37666
lowerback 6.35382 -2.03555 -8.45971
upperback 1.31445 -3.24632 0.930465
thorax -1.66903 -1.59223 5.96008
lowerneck -18.3786 -7.06821 -12.6059
upperneck 21.1582 -7.78731 6.45241
head 10.6076 -3.86125 3.21985
rclavicle -5.34156e-014 2.06798e-014
rhumerus 11.4847 -3.03058 -77.2885
rradius 122.463
rwrist 3.07948
rhand -21.4766 24.9783
rfingers 7.12502
rthumb 4.91417 -4.94475
lclavicle -5.34156e-014 2.06798e-014
lhumerus 14.0243 -7.98891 85.5942
lradius 113.543
lwrist -2.08367
lhand -13.1062 9.2549
lfingers 7.12502
lthumb 12.9909 38.8304
rfemur -32.0405 0.398825 5.82827
rtibia 45.1723
rfoot -15.7091 0.60626
rtoes 0.305148
lfemur -16.3376 0.0355987 -21.0862
ltibia 35.0944
lfoot -22.8766 3.97549
ltoes -12.7386
7
root 4.56904 17.3022 -5.49474 8.49256 -11.7981 3.41267
lowerback 6.3553 -2.01403 -8.5006
upperback 1.3302 -3.21988 0.931906
thorax -1.65529 -1.58009 5.98274
lowerneck -18.4666 -7.0171 -12.5158
upperneck 21.2914 -7.72802 6.41734
head 10.6605 -3.83083 3.20155
rclavicle -4.60715e-014 -3.39145e-014
rhumerus 11.5018 -3.02237 -77.2593
rradius 122.51
rwrist 2.9549
rhand -21.3213 24.8982
rfingers 7.12502
rthumb 5.06414 -5.02126
lclavicle -4.60715e-014 -3.39145e-014
lhumerus 13.9797 -8.04069 85.638
lradius 113.572
lwrist -2.04039
lhand -13.0526 9.28681
lfingers 7.12502
lthumb 13.0425 38.8591
rfemur -32.1868 0.290486 5.78567
rtibia 45.3527
rfoot -15.5145 0.743058
rtoes 0.418845
lfemur -16.2982 0.0696078 -21.1184
ltibia 35.0136
lfoot -22.8257 3.98678
ltoes -12.9001
8
root 4.56761 17.3027 -5.49506 8.53456 -11.8701 3.38052
lowerback 6.34318 -1.99643 -8.44056
upperback 1.37214 -3.18999 0.917978
thorax -1.61384 -1.56871 5.93052
lowerneck -18.6123 -6.9721 -12.3746
upperneck 21.3697 -7.68754 6.40314
head 10.7046 -3.80043 3.17793
rclavicle -3.18257e-014 -2.09345e-015
rhumerus 11.5514 -3.02541 -77.279
rradius 122.506
rwrist 2.91203
rhand -21.3542 24.9188
rfingers 7.12502
rthumb 5.03236 -5.00148
lclavicle -3.18257e-014 -2.09345e-015
lhumerus 14.0166 -8.05262 85.5949
lradius 113.575
lwrist -1.99654
lhand -12.8644 9.39151
lfingers 7.12502
lthumb 13.2239 38.9521
rfemur -32.3922 0.139045 5.81217
rtibia 45.5654
rfoot -15.2207 0.93324
rtoes 0.587938
lfemur -16.3048 0.117203 -21.0729
ltibia 34.9608
lfoot -22.8599 3.94951
ltoes -12.9293
9
root 4.56604 17.3043 -5.49661 8.57189 -11.9049 3.34297
lowerback 6.40855 -1.97171 -8.36578
upperback 1.38232 -3.15806 0.903101
thorax -1.65004 -1.5516 5.87389
lowerneck -18.7606 -6.95217 -12.2785
upperneck 21.469 -7.67693 6.41588
head 10.7637 -3.78428 3.16664
rclavicle -4.57888e-014 -1.40143e-014
rhumerus 11.5607 -3.07959 -77.2963
rradius 122.439
rwrist 2.9771
rhand -21.3821 24.9735
rfingers 7.12502
rthumb 5.00542 -4.94734
lclavicle -4.57888e-014 -1.40143e-014
lhumerus 14.0544 -8.08903 85.5509
lradius 113.505
lwrist -2.02639
lhand -12.7771 9.36191
lfingers 7.12502
lthumb 13.308 38.917
rfemur -32.5912 -0.053785 5.84449
rtibia 45.8146
rfoot -14.8917 1.26055
rtoes 0.867959
lfemur -16.3217 0.103857 -21.0045
ltibia 34.925
lfoot -22.9326 3.92069
ltoes -13.0633
10
root 4.56375 17.3057 -5.49861 8.57654 -11.9173 3.33636
lowerback 6.54075 -1.94186 -8.35674
upperback 1.36118 -3.13029 0.918646
thorax -1.7501 -1.53243 5.89092
lowerneck -18.7726 -6.90687 -12.2254
upperneck 21.516 -7.6217 6.38372
head 10.7734 -3.7589 3.15565
rclavicle 6.31918e-015 2.65253e-015
rhumerus 11.5016 -3.09574 -77.2397
rradius 122.418
rwrist 2.95243
rhand -21.3113 24.9369
rfingers 7.12502
rthumb 5.07381 -4.98239
lclavicle 6.31918e-015 2.65253e-015
lhumerus 14.0114 -8.14688 85.5687
lradius 113.469
lwrist -2.01639
lhand -12.8051 9.13917
lfingers 7.12502
lthumb 13.2811 38.696
rfemur -32.783 -0.282005 5.84145
rtibia 46.1086
rfoot -14.4443 1.64049
rtoes 0.95585
lfemur -16.2772 0.128874 -20.9691
ltibia 34.891
lfoot -22.9253 3.88891
ltoes -13.4709
11
root 4.56058 17.3035 -5.50057 8.59607 -11.9886 3.32933
lowerback 6.63208 -1.90622 -8.36381
upperback 1.34348 -3.0917 0.950378
thorax -1.82369 -1.50918 5.93114
lowerneck -18.6828 -6.83877 -12.2284
upperneck 21.4857 -7.53392 6.37808
head 10.736 -3.72148 3.17026
rclavicle -1.46689e-014 6.22444e-015
rhumerus 11.4482 -3.07164 -77.1908
rradius 122.432
rwrist 2.92324
rhand -21.2148 24.8912
rfingers 7.12502
rthumb 5.16698 -5.02584
lclavicle -1.46689e-014 6.22444e-015
lhumerus 13.9885 -8.17774 85.5999
lradius 113.541
lwrist -1.91753
lhand -12.7054 9.02993
lfingers 7.12502
lthumb 13.3771 38.5805
rfemur -33.0357 -0.500225 5.83052
rtibia 46.4638
rfoot -13.9442 2.0541
rtoes 1.23439
lfemur -16.2217 0.17288 -20.9352
ltibia 34.8411
lfoot -22.9442 3.84994
ltoes -13.6057
12
root 4.55787 17.2995 -5.50083 8.6293 -12.13 3.37746
lowerback 6.64961 -1.83686 -8.36865
upperback 1.35079 -3.00201 0.91475
thorax -1.8422 -1.46377 5.89138
lowerneck -18.5899 -6.7862 -12.124
upperneck 21.4173 -7.48974 6.33735
head 10.6821 -3.69872 3.14723
rclavicle -6.15207e-014 -1.50455e-014
rhumerus 11.3664 -3.11582 -77.1513
rradius 122.447
rwrist 2.92157
rhand -21.3444 24.9303
rfingers 7.12502
rthumb 5.04186 -4.98976
lclavicle -6.15207e-014 -1.50455e-014
lhumerus 14.0579 -8.26627 85.6168
lradius 113.579
lwrist -1.79339
lhand -12.6237 8.83545
lfingers 7.12502
lthumb 13.4559 38.3808
rfemur -33.3685 -0.658965 5.73066
rtibia 46.8782
rfoot -13.5035 2.47288
rtoes 1.49414
lfemur -16.2356 0.246146 -20.9774
ltibia 34.773
lfoot -23.0057 3.77715
ltoes -13.1512
13
root 4.55343 17.2965 -5.50452 8.63809 -12.3021 3.45744
lowerback 6.77555 -1.77738 -8.42998
upperback 1.31634 -2.94108 0.879924
thorax -1.95721 -1.42654 5.89258
lowerneck -18.495 -6.708 -12.076
upperneck 21.4195 -7.39553 6.29338
head 10.6512 -3.65912 3.14086
rclavicle -6.42338e-014 -1.07716e-014
rhumerus 11.2432 -3.07387 -77.1037
rradius 122.433
rwrist 2.99798
rhand -21.6182 25.0889
rfingers 7.12502
rthumb 4.77748 -4.83728
lclavicle -6.42338e-014 -1.07716e-014
lhumerus 14.0549 -8.28464 85.6184
lradius 113.521
lwrist -1.83884
lhand -12.6097 8.90476
lfingers 7.12502
lthumb 13.4694 38.4492
rfemur -33.7681 -0.681907 5.54432
rtibia 47.3432
rfoot -13.0104 2.87693
rtoes 2.60851
lfemur -16.2478 0.346984 -21.0489
ltibia 34.6792
lfoot -23.0238 3.723
ltoes -12.7758
14
root 4.54872 17.2965 -5.50955 8.67294 -12.4511 3.48415
lowerback 6.92459 -1.75046 -8.46134
upperback 1.27962 -2.92236 0.898572
thorax -2.07935 -1.41006 5.93699
lowerneck -18.5452 -6.6295 -12.2034
upperneck 21.5425 -7.26209 6.35464
head 10.7 -3.60221 3.20571
rclavicle 2.72024e-014 -4.96962e-017
rhumerus 11.1841 -2.9523 -77.0456
rradius 122.443
rwrist 2.98595
rhand -21.6324 25.0478
rfingers 7.12502
rthumb 4.76371 -4.87868
lclavicle 2.72024e-014 -4.96962e-017
lhumerus 13.9899 -8.23732 85.6079
lradius 113.566
lwrist -1.87868
lhand -12.5944 9.45376
lfingers 7.12502
lthumb 13.4842 38.9972
rfemur -34.225 -0.779731 5.41443
rtibia 47.8325
rfoot -12.3423 3.29959
rtoes 3.71561
lfemur -16.2509 0.530516 -21.0632
ltibia 34.6088
lfoot -23.0402 3.63416
ltoes -12.8596
15
root 4.54365 17.2986 -5.5106 8.79603 -12.5589 3.51539
lowerback 6.90664 -1.73622 -8.48581
upperback 1.28705 -2.9027 0.91982
thorax -2.06234 -1.40119 5.97081
lowerneck -18.8095 -6.55662 -12.3026
upperneck 21.7533 -7.12378 6.43086
head 10.8201 -3.53579 3.26946
rclavicle -6.91398e-015 -2.48481e-016
rhumerus 11.1959 -2.85486 -76.9837
rradius 122.518
rwrist 2.76477
rhand -21.4713 25.0364
rfingers 7.12502
rthumb 4.91925 -4.88645
lclavicle -6.91398e-015 -2.48481e-016
lhumerus 14.0261 -8.21739 85.554
lradius 113.675
lwrist -1.81684
lhand -12.6775 9.69935
lfingers 7.12502
lthumb 13.4041 39.2481
rfemur -34.75 -1.02412 5.32911
rtibia 48.3387
rfoot -11.7673 3.53547
rtoes 3.47484
lfemur -16.3469 0.679225 -21.0829
ltibia 34.5683
lfoot -23.1014 3.53642
ltoes -12.982
